<svg width="39" height="72" viewBox="0 0 39 72" fill="none" xmlns="http://www.w3.org/2000/svg">
<rect width="39" height="72" fill="#E5E5E5"/>
<g clip-path="url(#clip0_160_1052)">
<rect width="1920" height="3961" transform="translate(-74 -14)" fill="white"/>
<g filter="url(#filter0_d_160_1052)">
<g filter="url(#filter1_d_160_1052)">
<rect x="-74" y="-14" width="1920" height="100" fill="white"/>
</g>
<path d="M9.34487 42.7145L17.3506 24.2755H20.0364V29.4921L14.3549 42.7145H18.5902V40.3386C18.5902 39.7601 19.5543 39.7188 20.0364 39.7704V47.0531C18.7142 47.0531 18.5213 46.6055 18.5902 46.3816V44.3156H13.5802L1.18418 72H0.71933L3.86998 62.4448C3.86998 62.4448 1.08088 61.3601 2.01058 59.0359C2.94028 56.7116 8.51847 44.3156 8.51847 44.3156H2.01058V42.7145H9.34487Z" fill="#FF9900"/>
<path d="M30.2114 42.7145L22.2057 24.2755H19.5199V29.4921L25.2014 42.7145H20.9661V40.3386C20.9661 39.7601 20.002 39.7188 19.5199 39.7704V47.0531C20.8421 47.0531 21.035 46.6055 20.9661 46.3816V44.3156H25.9761L38.3721 72H38.837L35.6863 62.4448C35.6863 62.4448 38.4754 61.3601 37.5457 59.0359C36.616 56.7116 31.0378 44.3156 31.0378 44.3156H37.5457V42.7145H30.2114Z" fill="#FF9900"/>
<path fill-rule="evenodd" clip-rule="evenodd" d="M19.8298 21.5897C22.8535 21.5897 25.3047 19.1385 25.3047 16.1148C25.3047 13.0911 22.8535 10.6399 19.8298 10.6399C16.8061 10.6399 14.3549 13.0911 14.3549 16.1148C14.3549 19.1385 16.8061 21.5897 19.8298 21.5897ZM19.8298 24.5854C24.508 24.5854 28.3004 20.793 28.3004 16.1148C28.3004 11.4366 24.508 7.64419 19.8298 7.64419C15.1517 7.64419 11.3593 11.4366 11.3593 16.1148C11.3593 20.793 15.1517 24.5854 19.8298 24.5854Z" fill="#333333"/>
<path d="M18.2803 0H21.3793V8.16069H18.2803V0Z" fill="#333333"/>
</g>
</g>
<defs>
<filter id="filter0_d_160_1052" x="-78" y="-14" width="1928" height="108" filterUnits="userSpaceOnUse" color-interpolation-filters="sRGB">
<feFlood flood-opacity="0" result="BackgroundImageFix"/>
<feColorMatrix in="SourceAlpha" type="matrix" values="0 0 0 0 0 0 0 0 0 0 0 0 0 0 0 0 0 0 127 0" result="hardAlpha"/>
<feOffset dy="4"/>
<feGaussianBlur stdDeviation="2"/>
<feComposite in2="hardAlpha" operator="out"/>
<feColorMatrix type="matrix" values="0 0 0 0 0 0 0 0 0 0 0 0 0 0 0 0 0 0 0.25 0"/>
<feBlend mode="normal" in2="BackgroundImageFix" result="effect1_dropShadow_160_1052"/>
<feBlend mode="normal" in="SourceGraphic" in2="effect1_dropShadow_160_1052" result="shape"/>
</filter>
<filter id="filter1_d_160_1052" x="-114" y="-49" width="2000" height="180" filterUnits="userSpaceOnUse" color-interpolation-filters="sRGB">
<feFlood flood-opacity="0" result="BackgroundImageFix"/>
<feColorMatrix in="SourceAlpha" type="matrix" values="0 0 0 0 0 0 0 0 0 0 0 0 0 0 0 0 0 0 127 0" result="hardAlpha"/>
<feOffset dy="5"/>
<feGaussianBlur stdDeviation="20"/>
<feColorMatrix type="matrix" values="0 0 0 0 0 0 0 0 0 0 0 0 0 0 0 0 0 0 0.1 0"/>
<feBlend mode="normal" in2="BackgroundImageFix" result="effect1_dropShadow_160_1052"/>
<feBlend mode="normal" in="SourceGraphic" in2="effect1_dropShadow_160_1052" result="shape"/>
</filter>
<clipPath id="clip0_160_1052">
<rect width="1920" height="3961" fill="white" transform="translate(-74 -14)"/>
</clipPath>
</defs>
</svg>
